<svg width="1744" height="1730" viewBox="0 0 1744 1730" fill="none" xmlns="http://www.w3.org/2000/svg">
<path d="M1084.91 1078.72C985.843 1375.63 721.203 1467.32 581.27 1098.54C562.027 1047.83 612.342 1028.95 647.529 1006.63C671.631 991.348 684.292 978.093 682.823 964.426C675.896 899.951 645.902 720.572 645.902 720.572L642.852 714.793C642.852 714.793 643.583 713.173 640.712 716.038C637.719 719.025 630.818 750.214 603.621 750.214C579.237 750.214 554.482 739.314 542.636 663.886C538.348 636.589 540.781 565.025 570.989 552.102C583.471 546.763 594.987 544.854 606.222 551.263C617.456 557.671 593.26 529.357 718.209 425.232C799.427 357.549 927.717 347.629 979.483 359.057C1031.25 370.484 1083.02 395.824 1105.91 449.483C1133.69 514.593 1080.03 563.759 1091.82 712.042C1089.67 765.617 1092.74 883.198 945.313 922.607C917.313 930.093 926 971 968 981C1035 1002 1084.96 1053.27 1084.96 1078.86" fill="white"/>
<path fill-rule="evenodd" clip-rule="evenodd" d="M1084.94 617.2L1085.1 615.806C1089.24 579.399 1093.26 544.118 1112.24 512.429C1118.7 516.85 1117.95 522.452 1115.93 527.643C1096.01 578.845 1097.84 632.04 1099.67 685.206C1099.83 689.863 1099.99 694.519 1100.14 699.174C1102.22 765.601 1085.65 825.988 1041.35 876.736C1025.98 894.348 1005.63 906.464 984.854 917.045C963.515 927.912 959.03 937.132 965.687 960.599C965.93 961.455 966.229 962.315 966.529 963.178C967.892 967.1 969.273 971.073 965.487 974.95C960.965 979.58 956.026 978.259 950.682 976.829C950.48 976.775 950.277 976.721 950.074 976.667C899.733 963.241 854.697 939.154 813.056 908.393C807.139 904.022 802.272 898.06 797.561 892.29L797.561 892.289L797.256 891.916C794.776 888.879 794.338 884.141 797.807 881.462C801.054 878.955 803.609 881.011 806.452 883.298C806.815 883.59 807.182 883.886 807.556 884.176C830.027 901.614 854.773 913.063 883.768 915.943C897.176 917.275 910.448 916.784 923.708 916.293H923.708H923.709C931.17 916.017 938.626 915.741 946.101 915.79C956.34 915.857 964.752 911.107 972.761 906.584C973.712 906.047 974.658 905.513 975.601 904.99C1003.45 889.545 1029.88 872.229 1047.84 844.331C1063.92 819.331 1073.66 792.1 1079.4 763.443C1086.65 727.27 1085.99 690.7 1085.32 653.621C1085.11 641.536 1084.89 629.397 1084.94 617.2ZM581.684 541.824C603.577 540.064 615.771 553.033 626.037 568.053C638.664 586.526 645.39 607.465 648.37 629.572C648.87 633.28 649.389 637.223 647.152 640.856C642.737 641.45 642.319 637.946 642.252 635.317C641.696 614.644 632.526 596.61 623.308 579.156C616.73 566.704 607.059 554.64 591.943 551.577C574.71 548.084 558.858 563.566 551.067 583.842C536.636 621.398 539.029 658.36 552.455 694.759C558.33 710.687 565.648 726.913 580.303 738.026C595.142 749.28 613.008 747.295 623.903 732.349C624.526 731.494 625.184 730.649 625.845 729.801L625.845 729.801L625.845 729.801C627.841 727.238 629.853 724.656 630.928 721.749C633.035 716.049 636.256 710.629 642.155 711.423C648.978 712.342 650.271 719.729 650.909 725.499C656.707 777.928 664.758 830.024 672.81 882.126L672.81 882.126C674.808 895.053 676.806 907.98 678.769 920.913C681.369 938.023 684.381 962.598 682.361 973.05C682.219 973.792 682.136 974.523 682.057 975.222C681.749 977.958 681.496 980.21 677.906 980.75C673.034 981.484 670.831 978.66 670.233 974.28C667.913 957.274 667.273 950.747 666.275 924.735C665.308 899.519 660.569 874.665 655.83 849.816L655.83 849.815C654.111 840.799 652.392 831.784 650.853 822.753C645.613 791.996 640.483 760.802 640.022 725.777C639.326 726.808 638.644 727.825 637.974 728.826C630.426 740.095 624.264 749.295 613.48 752.877C595.58 758.827 579.917 754.422 567.371 740.277C553.071 724.155 543.783 705.808 538.558 684.498C530.244 650.587 528.704 617.368 539.487 583.853C544.655 567.774 563.189 539.208 581.684 541.824ZM616.346 669.326C620.716 672.467 624.679 675.316 628.334 663.948C627.158 621.652 613.6 594.654 592.472 593.632C603.747 608.197 614.559 622.413 615.472 642.132C610.742 639.978 607.7 636.589 604.784 633.342C602.753 631.08 600.783 628.886 598.348 627.226C597.31 626.518 596.295 625.735 595.271 624.946C590.544 621.301 585.636 617.516 577.471 620.357C581.3 626.187 586.575 630.301 591.799 634.377C597.832 639.083 603.798 643.737 607.392 650.919C596.777 658.561 592.209 668.62 597.718 680.761C602.497 691.296 609.565 700 623.565 700.635C623.042 694.31 618.868 689.707 614.812 685.235C609.879 679.796 605.121 674.55 607.316 666.635C610.515 665.133 613.516 667.291 616.346 669.326Z" fill="black"/>
<path d="M1479.34 1615.34H360.011L184.067 1612.95C184.067 1612.95 209.832 1376.2 220.741 1344.62C246.882 1268.96 273.289 1177.15 341.162 1132.25C370.762 1112.67 394.457 1095.31 396.38 1084.73C397.353 1079.39 494.201 985.027 511.723 975.464C595.242 929.882 676.472 957.091 676.472 957.091L677.372 975.858C677.372 975.858 679.293 998.558 684.26 1005.32C707.002 1036.27 785.627 1055.72 838.445 1059.97C904.662 1065.29 976.945 1035.31 979.106 1013.29C980.797 996.05 957.725 964.766 990.927 951.67C1016.48 941.593 1092.45 947.996 1119 958.292C1153.15 971.535 1218.06 1011.78 1249.28 1051.69C1261.5 1067.31 1263.99 1111.22 1305.6 1124.06C1367.6 1143.21 1415.19 1232.76 1440.9 1344.62C1454.04 1401.78 1479.34 1615.34 1479.34 1615.34Z" fill="white"/>
<path d="M1473.02 1615C1466.78 1593.73 1461.53 1541.69 1458.12 1513.01C1455.67 1492.35 1438.47 1346.53 1419.56 1295.62C1407.99 1264.46 1397.23 1232.56 1380.13 1203.46C1368.43 1183.53 1350.81 1169.19 1334.07 1154.6C1313.4 1136.6 1290.59 1120.94 1267.13 1106.39C1236.21 1087.22 1203.66 1083.31 1169.49 1094.67C1158.34 1098.39 1150.85 1106.22 1147.62 1119.02C1134.18 1172.34 1138.46 1226.59 1137.81 1280.57C1136.98 1350.37 1140.91 1420.06 1143.04 1489.8C1144.78 1547.04 1142.9 1556.54 1142.4 1615C1137.4 1615 1133.39 1615 1127.91 1615C1127 1582.83 1127.51 1599.66 1127.33 1567.49C1127.05 1519.93 1126.51 1472.37 1125.69 1424.81C1125.1 1386.98 1125.39 1349.06 1122.92 1311.33C1120.32 1271.69 1120.19 1232.18 1123.62 1192.73C1126.07 1164.52 1123.73 1135.73 1134.93 1108.41C1144.33 1085.46 1163.21 1076.59 1184.8 1074.95C1207.18 1073.25 1230.48 1070.07 1254.58 1084.2C1249.8 1067.58 1239.61 1059.48 1231.95 1050.13C1203.93 1015.99 1166.51 994.684 1128.45 973.449C1089.08 951.485 1047.67 954.408 1005.78 956.031C999.278 956.283 993.702 959.755 988.001 962.731C980.485 966.65 972.666 969.961 961.353 967.531C970.878 954.562 983.538 950.175 996.538 946.391C1033.61 935.601 1069.52 941.246 1092.19 944.61C1121.05 948.894 1220.66 996.92 1267.68 1072.5C1290.02 1108.4 1353.48 1108.9 1411.34 1230.05C1426.69 1262.2 1437.46 1296.42 1445.99 1330.83C1456.9 1374.83 1485.5 1583.39 1485.5 1615C1481.18 1615 1477.64 1615 1473.02 1615Z" fill="black"/>
<path d="M193.261 1615C195.284 1608.11 195.953 1605.1 196.902 1599.29C201.547 1570.86 202.368 1541.69 205.777 1513.01C208.231 1492.35 209.091 1471.59 211.884 1450.92C218.992 1398.32 227.393 1346.04 244.334 1295.62C254.986 1263.92 266.67 1232.56 283.765 1203.46C295.471 1183.53 313.09 1169.19 329.831 1154.6C350.493 1136.6 373.309 1120.94 396.771 1106.39C427.688 1087.22 460.234 1083.31 494.409 1094.67C505.56 1098.39 513.047 1106.22 516.275 1119.02C529.72 1172.34 525.438 1226.59 526.084 1280.57C526.919 1350.37 522.984 1420.06 520.858 1489.8C519.114 1547.04 521.428 1614.83 521.428 1614.83C521.428 1614.83 530.483 1614.99 535.969 1614.99C536.877 1582.83 536.385 1599.66 536.569 1567.49C536.845 1519.93 537.389 1472.37 538.202 1424.81C538.794 1386.98 538.502 1349.06 540.976 1311.33C543.576 1271.69 543.706 1232.18 540.276 1192.73C537.821 1164.52 540.161 1135.73 528.965 1108.41C519.565 1085.46 500.683 1076.59 479.095 1074.95C456.714 1073.25 433.413 1070.07 409.32 1084.2C414.096 1067.58 424.284 1059.48 431.948 1050.13C459.963 1015.99 497.389 994.684 535.448 973.449C574.817 951.485 616.223 954.408 658.112 956.031C664.617 956.283 670.193 959.755 675.893 962.731C683.41 966.65 678.236 974.172 682.345 963.356C688.058 948.314 680.357 950.179 667.357 946.395C630.289 935.605 593.215 942.426 556.246 946.948C548.877 947.848 541.498 951.319 534.834 954.919C483.408 982.701 418.729 1032.13 396.212 1072.5C384.191 1094.05 365.46 1105.27 348.712 1120.16C288.953 1173.3 273.27 1184.82 252.555 1230.06C237.725 1262.44 226.436 1296.42 217.902 1330.84C206.993 1374.83 198.761 1419.42 195.067 1464.96C192.433 1497.43 187.742 1529.84 184.784 1562.4C182.712 1585.2 181.258 1602.15 181.258 1615C185.015 1615 188.639 1615 193.261 1615Z" fill="black"/>
<path d="M1309.79 1615C1311.79 1591.29 1301.86 1530.28 1297.33 1499.27C1294.03 1476.69 1294.3 1453.39 1285.87 1431.59C1283.78 1426.19 1284.44 1419.21 1291.19 1418.09C1297.64 1417.02 1300.45 1421.57 1301.93 1428.88C1309.7 1467.22 1313.2 1506.11 1317.85 1544.83C1321.45 1574.8 1325.74 1604.94 1326.38 1614.92C1320.54 1615 1316.14 1615 1309.79 1615Z" fill="black"/>
<path d="M371.286 1615C372.728 1591.44 379.338 1530.28 383.87 1499.27C387.17 1476.69 386.895 1453.39 395.33 1431.59C397.421 1426.19 396.76 1419.21 390.009 1418.09C383.553 1417.02 380.747 1421.57 379.265 1428.88C371.495 1467.22 367.997 1506.11 363.345 1544.83C359.745 1574.8 357.557 1615 357.557 1615C357.557 1615 364.939 1615 371.286 1615Z" fill="black"/>
<path d="M1021.73 1615.34L644.248 1615C644.248 1615 630.734 1180.7 630.734 1091.36C630.734 1017.42 667.273 936.605 682.702 960.709C711.167 1005.18 759.212 1015.77 831.706 1019C946.729 1024.11 953.283 981.059 968.958 972.166C1000.44 954.303 1021.73 1028.6 1021.73 1105.27C1021.73 1210.5 1021.73 1615.34 1021.73 1615.34Z" fill="black"/>
<path d="M645.36 1615.34C645.36 1615.34 630.734 1187.76 630.734 1099.86C630.734 1027.11 667.273 936.994 682.702 960.709C711.167 1004.47 759.901 1019.06 832.395 1022.24C947.418 1027.27 953.283 980.916 968.958 972.166C1000.44 954.592 1021.73 1038.12 1021.73 1113.55C1021.73 1181.46 1021.73 1615 1021.73 1615" stroke="black" stroke-width="15"/>
<ellipse cx="840.771" cy="1376.6" rx="27" ry="167.518" transform="rotate(-51.405 840.771 1376.6)" fill="white" stroke="black" stroke-width="15"/>
<ellipse cx="832.056" cy="1376.6" rx="100.105" ry="98.5" fill="white" stroke="black" stroke-width="15"/>
<path d="M823.927 1397.71C751.618 1339.99 700.541 1283.76 709.843 1272.11L823.927 1397.71Z" fill="white"/>
<path d="M823.927 1397.71C751.618 1339.99 700.541 1283.76 709.843 1272.11" stroke="black" stroke-width="15"/>
<path d="M971.698 1481.1C962.398 1492.76 896.237 1455.42 823.927 1397.7L971.698 1481.1Z" fill="white"/>
<path d="M971.698 1481.1C962.398 1492.76 896.237 1455.42 823.927 1397.7" stroke="black" stroke-width="15"/>
<path d="M1119.54 535.849C1096.01 527.543 1101.12 505.726 1063.84 455.143C1026.55 404.56 964.317 371.594 918.907 359.659C873.497 347.724 847.294 343.745 814.33 360.227C781.366 376.709 714.3 419.905 692.703 460.831C671.106 501.757 654.054 518.231 648.371 548.358C642.688 578.485 647.691 596.558 629.615 578.481C611.539 560.404 596.082 561.43 603.471 522.214C610.86 482.998 694.953 297.145 874.008 297.145C979.564 297.145 1081.46 383.535 1101.92 428.435C1122.38 473.335 1119.54 535.849 1119.54 535.849Z" fill="white"/>
<path fill-rule="evenodd" clip-rule="evenodd" d="M1153.24 1034.28C1155.91 1034.29 1158.58 1034.3 1161.26 1034.31C1166.41 1034.17 1171.42 1034.64 1176.34 1035.11C1184.49 1035.89 1192.4 1036.64 1200.32 1034.52C1201.69 1034.16 1203.28 1034.18 1204.86 1034.2C1208.57 1034.25 1212.27 1034.3 1213.24 1029.43C1214.43 1023.47 1209.68 1019.9 1205.1 1016.47L1204.89 1016.31C1165.27 986.591 1170.36 942.354 1199.3 913.134C1214.85 897.434 1231.51 880.358 1236.11 858.8C1246.07 812.065 1239.9 766.654 1212.79 725.786C1196.73 701.57 1184.68 675.223 1173.66 648.638C1163.17 623.311 1162.38 596.495 1161.58 569.665C1161.19 556.465 1160.8 543.261 1159.26 530.23C1156.14 503.978 1152.93 477.607 1142.92 453.3C1131.7 426.103 1116.72 400.617 1098.41 377.589C1069.63 341.279 1037.56 308.971 994.975 289.489C993.284 288.715 991.592 287.936 989.898 287.156C968.968 277.518 947.766 267.754 923.926 266.789C923.115 266.756 922.305 266.723 921.494 266.691C912.097 266.314 902.686 265.936 893.34 264.982C855.934 261.161 819.59 267.18 784.382 278.741C746.772 290.92 711.701 309.859 680.889 334.628C646.389 362.405 619.689 395.457 600.889 435.414C596.467 444.81 592.484 454.422 588.501 464.034C580.298 483.831 572.097 503.625 560.058 521.523C555.435 528.398 550.259 534.963 545.089 541.518C536.823 551.999 528.577 562.456 522.644 574.123C521.182 576.998 519.711 579.869 518.241 582.739C501.525 615.366 484.867 647.881 481.124 686.356C475.82 740.882 489.442 787.516 527.253 826.156C550.87 850.291 562.385 903.779 549.239 929.147C540.846 945.343 532.45 960.972 517.005 972.372C514.578 974.163 512.07 975.897 509.549 977.639C501.1 983.479 492.516 989.413 486.396 997.917C489.75 1001.93 493.033 1003.34 497.096 1003.55C508.769 1004.14 520.441 1004.78 532.112 1005.42C551.826 1006.5 571.54 1007.58 591.263 1008.45C603.1 1008.97 614.944 1008.93 626.792 1008.9C643.472 1008.85 660.161 1008.8 676.848 1010.3C691.116 1011.59 705.684 1012.77 720.135 1009.45C727.008 1007.87 731.296 1004.02 731.943 997.805C734.215 975.956 734.85 954.378 716.756 937.378C711.253 932.041 706.301 926.164 701.976 919.836C692.545 906.454 687.991 892.543 694.11 875.643C695.483 871.851 696.993 868.115 698.503 864.376C702.816 853.701 707.138 843.005 708.323 830.925C711.589 797.664 704.791 769.47 676.696 748.644C674.134 746.745 671.495 744.918 668.857 743.092C656.347 734.432 643.837 725.772 639.496 709.444C634.01 712.126 632.866 715.998 631.988 719.617C627.8 736.856 615.788 747.598 599.688 749.998C583.895 752.35 570.813 739.463 562.807 729.009C548.182 709.913 541.536 686.032 540.85 661.325C540.157 636.385 545.468 612.204 552.419 588.585C556.343 575.25 562.912 562.507 575.572 554.332C581.457 550.532 587.209 548.946 593.496 552.593C620.924 568.505 638.106 591.373 641.524 623.582C641.61 624.386 641.571 625.254 641.532 626.132C641.406 628.971 641.275 631.904 645.336 633.066L645.643 632.615C649.801 626.508 649.931 626.318 650.113 618.108C651.026 577.013 665.033 541.332 692.074 510.1C705.515 494.578 720.754 481.093 735.991 467.611C742.348 461.986 748.705 456.362 754.93 450.59C760.927 445.029 766.726 440.05 772.292 435.271C790.453 419.677 806.133 406.214 818.13 381.616C819.694 378.408 825.536 366.648 831.467 366.458C834.044 368.56 833.06 372.674 832.198 376.279C831.867 377.665 831.553 378.975 831.467 380.068C829.483 405.178 851.053 431.582 873.467 443.068C900.415 456.877 928.753 461.323 958.593 460.941C984.014 460.621 999.438 472.1 1008.16 495.421C1015.06 513.869 1026.54 526.969 1046.2 533.613C1046.78 533.807 1047.36 534.002 1047.95 534.199C1059.69 538.133 1073.56 542.784 1077.69 555.388C1078.15 556.798 1078.62 558.212 1079.09 559.633C1082.85 570.947 1086.73 582.612 1086.96 594.941C1087.39 618.011 1087.91 641.08 1088.43 664.148C1088.78 679.699 1089.13 695.249 1089.46 710.8C1090.93 782.033 1065.49 841.507 1012.16 889.107C1010.64 890.458 1008.64 891.534 1006.61 892.624C1001.67 895.273 996.596 897.998 998.109 904.924C999.491 911.247 1004.21 911.223 1009.1 911.198C1012.21 911.183 1015.39 911.166 1017.81 912.792C1018.3 916.778 1016.59 920.108 1014.89 923.422C1014.28 924.6 1013.68 925.777 1013.18 926.981C992.111 977.306 1021.78 1014.44 1066.5 1026.52C1094.76 1034.16 1123.61 1034.22 1153.24 1034.28ZM967.745 353.616C889.296 323.118 816.188 339.447 747.796 384.707L747.794 384.704C722.746 403.297 701.284 422.959 683.692 446.811C665.112 472 650.564 499.184 641.984 529.169C640.8 533.309 639.361 537.387 637.914 541.484C634.535 551.057 631.118 560.736 630.833 571.575C617.418 563.048 613.912 552.81 617.333 537.284C633.03 466.042 665.762 405.131 725.541 361.964C755.419 340.385 789.44 327.295 826.698 320.032C1008.78 284.535 1123.71 428.432 1106.24 523.592C1089.58 442.659 1045.16 383.71 967.745 353.616Z" fill="black"/>
<path d="M916.396 846.49C906.824 833.531 904.676 817.298 891.796 807.054C884.726 801.431 877.123 799.001 869.031 796.508C865.308 795.362 859.724 795.774 859.655 789.766C859.579 783.117 865.604 783.166 869.755 782.097C881.709 779.025 891.642 786.065 900.255 791.775C916.398 802.484 925.755 818.839 927.393 838.539C927.918 844.96 928.46 854.293 916.396 846.49Z" fill="black"/>
<path d="M972.459 717.036C977.529 701.365 966.48 690.736 962.076 678.512C953.52 654.769 945.87 631.105 947.089 605.474C947.306 600.906 946.389 594.774 953.077 594.936C958.214 595.062 960.977 600.11 961.177 604.948C962.666 640.448 975.602 672.571 990.105 704.238C992.838 710.204 992.214 715.323 988.984 721.091C980.513 736.218 966.653 741.136 950.794 741.623C942.077 741.891 935.861 737.096 932.621 726.395C946.624 724.56 961.965 731.186 972.459 717.036Z" fill="black"/>
<path fill-rule="evenodd" clip-rule="evenodd" d="M936.086 558.281L936.091 558.281C988.115 558.626 1039.33 558.965 1090.54 559.379C1095.22 559.534 1099.88 559.946 1104.51 560.613C1111.63 561.461 1114.91 564.8 1116.49 572.645C1122.72 603.494 1119.29 633.659 1110.22 663.034C1104.76 680.708 1090.23 691.104 1072.67 696.575C1049.74 703.719 1026.22 708.951 1002.87 700.475C982.13 692.945 965.693 680.48 960.014 656.539C959.303 653.544 958.415 650.608 957.53 647.683L957.53 647.683C955.016 639.372 952.532 631.162 954.257 622.009C954.996 618.085 951.195 616.147 948.208 614.625L948.178 614.609C933.188 606.963 918.478 614.418 915.77 631.087C912.8 649.375 906.77 666.896 896.409 681.877C879.865 705.791 854.759 711.261 827.4 708.024C805.853 705.474 787.236 696.436 771.2 681.436C756.85 668.014 749.583 651.894 751.124 632.641C752.024 621.435 745.703 616.341 737.424 614.931C723.108 612.491 709.839 607.084 696.64 601.707L696.64 601.707C691.89 599.772 687.149 597.84 682.373 596.052C675.181 593.361 667.874 591.068 660.573 588.776L660.573 588.776C652.535 586.254 644.504 583.733 636.643 580.686C636.287 580.549 635.935 580.417 635.588 580.286L635.587 580.286C631.77 578.856 628.565 577.655 629.191 571.821C634.893 569.16 640.13 570.868 645.555 572.636C649.145 573.807 652.816 575.004 656.759 574.979C654.074 565.998 648.481 562.606 639.498 562.208C628.724 561.73 619.098 558.031 611.968 549.033C616.742 544.381 620.995 544.713 625.149 545.84C646.516 551.638 668.346 554.926 690.183 558.215C708.176 560.925 726.175 563.636 743.922 567.752C754.208 570.137 765.261 570.18 774.962 561.33C781.178 555.658 790.446 555.846 798.931 556.018C799.98 556.04 801.018 556.061 802.037 556.07C827.29 556.306 852.539 556.861 878.238 557.425L878.239 557.425C888.89 557.659 899.618 557.895 910.456 558.11C919.023 558.167 927.565 558.224 936.086 558.281ZM760.356 623.971C763.719 665.682 787.103 686.956 823.136 694.965C846.709 700.205 875.409 695.103 889.946 668.185C898.129 653.032 902.768 637.045 906.959 620.601C910.83 605.408 921.194 600.555 942.6 602.34C956.894 603.532 963.476 610.184 965.4 624.805C966.843 635.764 968.476 646.705 970.421 657.589C972.877 671.337 989.854 687.913 1003.73 690.698C1025.07 695.112 1047.22 693.481 1067.68 685.99C1079.66 681.651 1090.59 675.619 1096.36 662.996C1106.44 640.947 1109.45 617.71 1109.14 593.78C1108.85 571.859 1107.52 570.38 1084.84 570.29C1070.75 570.234 1056.66 570.251 1042.56 570.267C1023.03 570.29 1003.49 570.313 983.955 570.142C958.981 569.925 934.008 569.604 909.035 569.283L909.034 569.283C879.978 568.909 850.921 568.536 821.864 568.325C818.382 568.3 814.788 567.963 811.177 567.623C800.435 566.615 789.534 565.591 780.937 572.725C771.995 580.143 763.102 580.12 753.534 580.095H753.533C752.385 580.092 751.227 580.089 750.058 580.099C747.558 580.12 745.094 579.606 742.603 579.087C738.399 578.209 734.118 577.316 729.458 578.953C730.779 593.769 734.15 606.719 751.399 610.178C757.747 611.448 761.123 615.009 760.352 623.971H760.356ZM684.546 570.56C693.39 569.411 701.56 568.35 704.44 581.114H704.436C705.954 585.856 707.095 588.844 708.496 592.515L708.515 592.562C695.509 589.793 685.342 584.841 680.387 571.051C681.778 570.92 683.17 570.739 684.546 570.56Z" fill="white"/>
<path fill-rule="evenodd" clip-rule="evenodd" d="M874.335 558.282C900.607 558.115 926.697 557.944 952.676 557.774C994.73 557.499 1036.49 557.226 1078.25 556.972C1080.31 556.96 1082.4 556.863 1084.5 556.766C1091.75 556.43 1099.08 556.091 1105.54 559.219C1115.65 564.112 1116.22 574.196 1116.76 583.555C1116.85 585.07 1116.93 586.567 1117.06 588.019C1119.26 613.574 1116.88 639.058 1107.97 663.125C1102.56 677.685 1090.75 688.946 1075.95 693.657C1052.48 701.474 1027.93 707.157 1003.92 698.535C985.216 691.823 969.491 679.89 961.872 659.478C960.668 656.255 959.231 653.141 957.796 650.032C954.379 642.627 950.973 635.245 950.757 626.458C950.643 621.839 945.057 618.397 939.125 618.388C932.088 618.376 928.383 622.857 925.517 628.26C923.133 632.756 922.019 637.63 920.895 642.55C920.062 646.196 919.224 649.866 917.859 653.427C903.659 690.491 879.138 708.719 839.759 707.927C814.125 707.413 792.108 697.617 773.051 680.527C758.151 667.171 751.816 650.513 752.22 630.873C752.271 628.334 752.258 625.793 752.244 623.036C752.238 621.694 752.231 620.3 752.231 618.83C731.462 614.097 711.969 606.281 692.559 598.498C674.156 591.12 655.827 583.771 636.556 579.106C633.297 578.317 631.142 577.115 629.779 574.206C625.878 565.894 620.237 558.708 613.185 549.724L613.185 549.724C612.262 548.548 611.315 547.342 610.345 546.098C616.875 547.236 623.111 548.347 629.149 549.422L629.15 549.422C641.979 551.708 653.916 553.834 665.891 555.718C675.747 557.269 685.563 559.085 695.38 560.901L695.38 560.901C715.499 564.622 735.617 568.344 756.083 569.782C762.712 570.247 768.574 570.133 774.299 563.916C780.546 557.133 790.637 557.583 799.217 557.967C800.215 558.011 801.193 558.055 802.142 558.086C825.817 558.875 849.438 559.147 874.335 558.282ZM706.068 595.706C708.897 597.178 711.308 596.801 711.308 593.251C711.308 574.429 696.753 564.213 677.196 569.758C681.174 583.864 691.773 590.348 706.068 595.706ZM722.135 599.291C720.145 597.843 719.114 595.075 716.468 587.964H716.473C712.992 581.914 711.489 577.389 712.846 570.077C719.959 576.18 722.108 583.642 724.208 590.936C725.224 594.466 726.229 597.956 727.781 601.234C725.064 600.601 723.404 600.214 722.135 599.291Z" fill="black"/>
<path d="M896.905 588.754C896.231 582.754 900.033 581.42 903.921 581.408C922.994 581.35 942.074 581.424 961.138 581.922C965.486 581.943 969.579 583.982 972.214 587.442C965.312 595.5 918.64 596.826 896.905 588.754Z" fill="black"/>
<path d="M872.866 562.818C879.466 562.018 884.894 561.044 890.366 560.489C895.097 560.009 898.623 562.283 900.656 566.52C902.556 570.476 899.246 572.487 897.345 575.262C882.426 597.038 860.364 591.884 840.545 588.262C826.487 585.691 810.124 583.156 803.369 565.584C799.915 556.599 800.584 553.526 810.516 552.639C816.232 552.128 821.446 553.863 826.69 555.623C841.542 560.705 857.171 563.141 872.866 562.818Z" fill="black"/>
<path d="M1003.38 563.23C1008.99 559.109 1014.19 560.259 1019.78 561.392C1036.9 564.87 1054.06 567.161 1069.98 556.683C1074.29 553.839 1079.23 553.173 1082.7 557.383C1085.9 561.283 1083 565.15 1080.83 569.013C1073.88 581.367 1061.94 585.387 1049.43 588.603C1039.36 591.193 1029.03 590.653 1018.88 590.035C1003.02 589.071 997.145 579.032 1003.38 563.23Z" fill="black"/>
</svg>
